<svg width="96" height="96" viewBox="0 0 96 96" xmlns="http://www.w3.org/2000/svg" role="img" aria-label="Grafana icon">
  <rect width="96" height="96" rx="24" fill="#1F2937"/>
  <path d="M48 22c5 0 8 3 9 8 7-1 12 4 12 11 0 2 0 4-1 5 4 2 6 6 6 10 0 7-6 13-13 13H35c-8 0-13-6-13-13 0-5 2-8 6-10-1-2-1-3-1-5 0-7 5-12 12-11 1-5 4-8 9-8Z" fill="#F97316"/>
  <circle cx="48" cy="48" r="9" fill="#fff7ed"/>
  <circle cx="48" cy="48" r="4" fill="#F97316"/>
  <text x="48" y="87" text-anchor="middle" fill="#fff" font-size="11" font-family="Arial, sans-serif" font-weight="700">GRAFANA</text>
</svg>

